<svg width="984" height="525" viewBox="0 0 984 525" fill="none" xmlns="http://www.w3.org/2000/svg">
<rect x="60" width="1" height="525" fill="url(#paint0_linear_1_217)"/>
<rect x="114" width="1" height="525" fill="url(#paint1_linear_1_217)"/>
<rect x="168" width="1" height="525" fill="url(#paint2_linear_1_217)"/>
<rect x="222" width="1" height="525" fill="url(#paint3_linear_1_217)"/>
<rect x="276" width="1" height="525" fill="url(#paint4_linear_1_217)"/>
<rect x="330" width="1" height="525" fill="url(#paint5_linear_1_217)"/>
<rect x="384" width="1" height="525" fill="url(#paint6_linear_1_217)"/>
<rect x="438" width="1" height="525" fill="url(#paint7_linear_1_217)"/>
<rect x="492" width="1" height="525" fill="url(#paint8_linear_1_217)"/>
<rect x="546" width="1" height="525" fill="url(#paint9_linear_1_217)"/>
<rect x="600" width="1" height="525" fill="url(#paint10_linear_1_217)"/>
<rect x="654" width="1" height="525" fill="url(#paint11_linear_1_217)"/>
<rect x="708" width="1" height="525" fill="url(#paint12_linear_1_217)"/>
<rect x="762" width="1" height="525" fill="url(#paint13_linear_1_217)"/>
<rect x="816" width="1" height="525" fill="url(#paint14_linear_1_217)"/>
<rect x="870" width="1" height="525" fill="url(#paint15_linear_1_217)"/>
<rect x="924" width="1" height="525" fill="url(#paint16_linear_1_217)"/>
<rect y="271" width="1" height="984" transform="rotate(-90 0 271)" fill="url(#paint17_linear_1_217)"/>
<rect y="217" width="1" height="984" transform="rotate(-90 0 217)" fill="url(#paint18_linear_1_217)"/>
<rect y="163" width="1" height="984" transform="rotate(-90 0 163)" fill="url(#paint19_linear_1_217)"/>
<rect y="109" width="1" height="984" transform="rotate(-90 0 109)" fill="url(#paint20_linear_1_217)"/>
<rect y="55" width="1" height="984" transform="rotate(-90 0 55)" fill="url(#paint21_linear_1_217)"/>
<defs>
<linearGradient id="paint0_linear_1_217" x1="60.5" y1="0" x2="60.5" y2="525" gradientUnits="userSpaceOnUse">
<stop stop-color="#F3F3F3"/>
<stop offset="0.348958" stop-color="white" stop-opacity="0"/>
</linearGradient>
<linearGradient id="paint1_linear_1_217" x1="114.5" y1="0" x2="114.5" y2="525" gradientUnits="userSpaceOnUse">
<stop stop-color="#F3F3F3"/>
<stop offset="0.348958" stop-color="white" stop-opacity="0"/>
</linearGradient>
<linearGradient id="paint2_linear_1_217" x1="168.5" y1="0" x2="168.5" y2="525" gradientUnits="userSpaceOnUse">
<stop stop-color="#F3F3F3"/>
<stop offset="0.348958" stop-color="white" stop-opacity="0"/>
</linearGradient>
<linearGradient id="paint3_linear_1_217" x1="222.5" y1="0" x2="222.5" y2="525" gradientUnits="userSpaceOnUse">
<stop stop-color="#F3F3F3"/>
<stop offset="0.348958" stop-color="white" stop-opacity="0"/>
</linearGradient>
<linearGradient id="paint4_linear_1_217" x1="276.5" y1="0" x2="276.5" y2="525" gradientUnits="userSpaceOnUse">
<stop stop-color="#F3F3F3"/>
<stop offset="0.348958" stop-color="white" stop-opacity="0"/>
</linearGradient>
<linearGradient id="paint5_linear_1_217" x1="330.5" y1="0" x2="330.5" y2="525" gradientUnits="userSpaceOnUse">
<stop stop-color="#F3F3F3"/>
<stop offset="0.348958" stop-color="white" stop-opacity="0"/>
</linearGradient>
<linearGradient id="paint6_linear_1_217" x1="384.5" y1="0" x2="384.5" y2="525" gradientUnits="userSpaceOnUse">
<stop stop-color="#F3F3F3"/>
<stop offset="0.348958" stop-color="white" stop-opacity="0"/>
</linearGradient>
<linearGradient id="paint7_linear_1_217" x1="438.5" y1="0" x2="438.5" y2="525" gradientUnits="userSpaceOnUse">
<stop stop-color="#F3F3F3"/>
<stop offset="0.348958" stop-color="white" stop-opacity="0"/>
</linearGradient>
<linearGradient id="paint8_linear_1_217" x1="492.5" y1="0" x2="492.5" y2="525" gradientUnits="userSpaceOnUse">
<stop stop-color="#F3F3F3"/>
<stop offset="0.348958" stop-color="white" stop-opacity="0"/>
</linearGradient>
<linearGradient id="paint9_linear_1_217" x1="546.5" y1="0" x2="546.5" y2="525" gradientUnits="userSpaceOnUse">
<stop stop-color="#F3F3F3"/>
<stop offset="0.348958" stop-color="white" stop-opacity="0"/>
</linearGradient>
<linearGradient id="paint10_linear_1_217" x1="600.5" y1="0" x2="600.5" y2="525" gradientUnits="userSpaceOnUse">
<stop stop-color="#F3F3F3"/>
<stop offset="0.348958" stop-color="white" stop-opacity="0"/>
</linearGradient>
<linearGradient id="paint11_linear_1_217" x1="654.5" y1="0" x2="654.5" y2="525" gradientUnits="userSpaceOnUse">
<stop stop-color="#F3F3F3"/>
<stop offset="0.348958" stop-color="white" stop-opacity="0"/>
</linearGradient>
<linearGradient id="paint12_linear_1_217" x1="708.5" y1="0" x2="708.5" y2="525" gradientUnits="userSpaceOnUse">
<stop stop-color="#F3F3F3"/>
<stop offset="0.348958" stop-color="white" stop-opacity="0"/>
</linearGradient>
<linearGradient id="paint13_linear_1_217" x1="762.5" y1="0" x2="762.5" y2="525" gradientUnits="userSpaceOnUse">
<stop stop-color="#F3F3F3"/>
<stop offset="0.348958" stop-color="white" stop-opacity="0"/>
</linearGradient>
<linearGradient id="paint14_linear_1_217" x1="816.5" y1="0" x2="816.5" y2="525" gradientUnits="userSpaceOnUse">
<stop stop-color="#F3F3F3"/>
<stop offset="0.348958" stop-color="white" stop-opacity="0"/>
</linearGradient>
<linearGradient id="paint15_linear_1_217" x1="870.5" y1="0" x2="870.5" y2="525" gradientUnits="userSpaceOnUse">
<stop stop-color="#F3F3F3"/>
<stop offset="0.348958" stop-color="white" stop-opacity="0"/>
</linearGradient>
<linearGradient id="paint16_linear_1_217" x1="924.5" y1="0" x2="924.5" y2="525" gradientUnits="userSpaceOnUse">
<stop stop-color="#F3F3F3"/>
<stop offset="0.348958" stop-color="white" stop-opacity="0"/>
</linearGradient>
<linearGradient id="paint17_linear_1_217" x1="0.5" y1="271" x2="0.5" y2="1255" gradientUnits="userSpaceOnUse">
<stop stop-color="#F3F3F3" stop-opacity="0.77"/>
<stop offset="1" stop-color="white" stop-opacity="0"/>
</linearGradient>
<linearGradient id="paint18_linear_1_217" x1="0.5" y1="217" x2="0.5" y2="1201" gradientUnits="userSpaceOnUse">
<stop stop-color="#F3F3F3" stop-opacity="0.77"/>
<stop offset="1" stop-color="white" stop-opacity="0"/>
</linearGradient>
<linearGradient id="paint19_linear_1_217" x1="0.5" y1="163" x2="0.5" y2="1147" gradientUnits="userSpaceOnUse">
<stop stop-color="#F3F3F3" stop-opacity="0.77"/>
<stop offset="1" stop-color="white" stop-opacity="0"/>
</linearGradient>
<linearGradient id="paint20_linear_1_217" x1="0.5" y1="109" x2="0.5" y2="1093" gradientUnits="userSpaceOnUse">
<stop stop-color="#F3F3F3" stop-opacity="0.77"/>
<stop offset="1" stop-color="white" stop-opacity="0"/>
</linearGradient>
<linearGradient id="paint21_linear_1_217" x1="0.5" y1="55" x2="0.5" y2="1039" gradientUnits="userSpaceOnUse">
<stop stop-color="#F3F3F3" stop-opacity="0.77"/>
<stop offset="1" stop-color="white" stop-opacity="0"/>
</linearGradient>
</defs>
</svg>
