<svg width="46" height="21" viewBox="0 0 46 21" fill="none" xmlns="http://www.w3.org/2000/svg">
<path fill-rule="evenodd" clip-rule="evenodd" d="M14.5385 18.5C15.6855 18.5 16.6154 17.6046 16.6154 16.5L16.6152 10.5C16.6152 6.08152 12.896 2.5 8.30759 2.5C3.7192 2.5 -6.94862e-05 6.08152 -6.98725e-05 10.5L-7.03971e-05 16.5C-7.04936e-05 17.6045 0.929817 18.5 2.07682 18.5L14.5385 18.5ZM13.2925 14.5001C13.2925 14.0582 12.9206 13.7 12.4617 13.7L4.15372 13.7C3.69488 13.7 3.32299 14.0582 3.32299 14.5001C3.32299 14.9419 3.69488 15.3 4.15372 15.3L12.4617 15.3C12.9206 15.3 13.2925 14.9419 13.2925 14.5001ZM11.7356 8.78785C12.1484 8.42093 12.1856 7.78886 11.8187 7.37608C11.4518 6.96329 10.8197 6.92611 10.4069 7.29303L8.30204 9.16402L6.19717 7.29303C5.78439 6.92611 5.15232 6.96329 4.7854 7.37608C4.41848 7.78886 4.45566 8.42093 4.86844 8.78785L7.63767 11.2494C8.01656 11.5862 8.58752 11.5862 8.9664 11.2494L11.7356 8.78785Z" fill="#0A071B"/>
<path d="M25.9134 15.668C25.1947 15.668 24.5601 15.5467 24.0094 15.304C23.4587 15.052 23.0247 14.6973 22.7074 14.24C22.3901 13.7733 22.2267 13.2087 22.2174 12.546H24.1074C24.1261 13.0033 24.2894 13.3907 24.5974 13.708C24.9147 14.016 25.3487 14.17 25.8994 14.17C26.3754 14.17 26.7534 14.058 27.0334 13.834C27.3134 13.6007 27.4534 13.2927 27.4534 12.91C27.4534 12.5087 27.3274 12.196 27.0754 11.972C26.8327 11.748 26.5061 11.566 26.0954 11.426C25.6847 11.286 25.2461 11.1367 24.7794 10.978C24.0234 10.7167 23.4447 10.3807 23.0434 9.97C22.6514 9.55933 22.4554 9.01333 22.4554 8.332C22.4461 7.75333 22.5814 7.25867 22.8614 6.848C23.1507 6.428 23.5427 6.106 24.0374 5.882C24.5321 5.64867 25.1014 5.532 25.7454 5.532C26.3987 5.532 26.9727 5.64867 27.4674 5.882C27.9714 6.11533 28.3634 6.442 28.6434 6.862C28.9327 7.282 29.0867 7.78133 29.1054 8.36H27.1874C27.1781 8.01467 27.0427 7.71133 26.7814 7.45C26.5294 7.17933 26.1747 7.044 25.7174 7.044C25.3254 7.03467 24.9941 7.13267 24.7234 7.338C24.4621 7.534 24.3314 7.82333 24.3314 8.206C24.3314 8.53267 24.4341 8.794 24.6394 8.99C24.8447 9.17667 25.1247 9.33533 25.4794 9.466C25.8341 9.59667 26.2401 9.73667 26.6974 9.886C27.1827 10.054 27.6261 10.25 28.0274 10.474C28.4287 10.698 28.7507 10.9967 28.9934 11.37C29.2361 11.734 29.3574 12.2053 29.3574 12.784C29.3574 13.2973 29.2267 13.7733 28.9654 14.212C28.7041 14.6507 28.3167 15.0053 27.8034 15.276C27.2901 15.5373 26.6601 15.668 25.9134 15.668ZM34.2529 15.668C33.5529 15.668 32.9322 15.5187 32.3909 15.22C31.8496 14.9213 31.4249 14.5013 31.1169 13.96C30.8089 13.4187 30.6549 12.7933 30.6549 12.084C30.6549 11.3653 30.8042 10.726 31.1029 10.166C31.4109 9.606 31.8309 9.172 32.3629 8.864C32.9042 8.54667 33.5389 8.388 34.2669 8.388C34.9482 8.388 35.5502 8.53733 36.0729 8.836C36.5956 9.13467 37.0016 9.54533 37.2909 10.068C37.5896 10.5813 37.7389 11.1553 37.7389 11.79C37.7389 11.8927 37.7342 12 37.7249 12.112C37.7249 12.224 37.7202 12.3407 37.7109 12.462H32.4329C32.4702 13.0033 32.6569 13.428 32.9929 13.736C33.3382 14.044 33.7536 14.198 34.2389 14.198C34.6029 14.198 34.9062 14.1187 35.1489 13.96C35.4009 13.792 35.5876 13.5773 35.7089 13.316H37.5289C37.3982 13.7547 37.1789 14.156 36.8709 14.52C36.5722 14.8747 36.1989 15.1547 35.7509 15.36C35.3122 15.5653 34.8129 15.668 34.2529 15.668ZM34.2669 9.844C33.8282 9.844 33.4409 9.97 33.1049 10.222C32.7689 10.4647 32.5542 10.838 32.4609 11.342H35.9189C35.8909 10.8847 35.7229 10.5207 35.4149 10.25C35.1069 9.97933 34.7242 9.844 34.2669 9.844ZM39.2461 15.5V5.42H41.0381V15.5H39.2461ZM42.8691 15.5V5.42H44.6611V15.5H42.8691Z" fill="#0A071B"/>
</svg>
