<svg width="46" height="21" viewBox="0 0 46 21" fill="none" xmlns="http://www.w3.org/2000/svg">
<path fill-rule="evenodd" clip-rule="evenodd" d="M2.0769 2.5C0.929889 2.5 0 3.39545 0 4.49997L0.000142612 10.5C0.000142612 14.9185 3.71942 18.5 8.3078 18.5C12.8962 18.5 16.6155 14.9185 16.6155 10.5V4.49997C16.6155 3.39545 15.6856 2.5 14.5386 2.5H2.0769ZM3.32292 6.49995C3.32292 6.94179 3.69481 7.30005 4.15365 7.30005H12.4617C12.9205 7.30005 13.2924 6.94179 13.2924 6.49995C13.2924 6.0581 12.9205 5.69999 12.4617 5.69999H4.15365C3.69481 5.69999 3.32292 6.0581 3.32292 6.49995ZM4.87975 12.2121C4.46697 12.5791 4.42979 13.2111 4.79671 13.6239C5.16363 14.0367 5.7957 14.0739 6.20848 13.707L8.31335 11.836L10.4182 13.707C10.831 14.0739 11.4631 14.0367 11.83 13.6239C12.1969 13.2111 12.1597 12.5791 11.7469 12.2121L8.97771 9.75061C8.59883 9.41382 8.02787 9.41382 7.64898 9.75061L4.87975 12.2121Z" fill="white"/>
<path d="M25.9134 15.668C25.1947 15.668 24.5601 15.5467 24.0094 15.304C23.4587 15.052 23.0247 14.6973 22.7074 14.24C22.3901 13.7733 22.2267 13.2087 22.2174 12.546H24.1074C24.1261 13.0033 24.2894 13.3907 24.5974 13.708C24.9147 14.016 25.3487 14.17 25.8994 14.17C26.3754 14.17 26.7534 14.058 27.0334 13.834C27.3134 13.6007 27.4534 13.2927 27.4534 12.91C27.4534 12.5087 27.3274 12.196 27.0754 11.972C26.8327 11.748 26.5061 11.566 26.0954 11.426C25.6847 11.286 25.2461 11.1367 24.7794 10.978C24.0234 10.7167 23.4447 10.3807 23.0434 9.97C22.6514 9.55933 22.4554 9.01333 22.4554 8.332C22.4461 7.75333 22.5814 7.25867 22.8614 6.848C23.1507 6.428 23.5427 6.106 24.0374 5.882C24.5321 5.64867 25.1014 5.532 25.7454 5.532C26.3987 5.532 26.9727 5.64867 27.4674 5.882C27.9714 6.11533 28.3634 6.442 28.6434 6.862C28.9327 7.282 29.0867 7.78133 29.1054 8.36H27.1874C27.1781 8.01467 27.0427 7.71133 26.7814 7.45C26.5294 7.17933 26.1747 7.044 25.7174 7.044C25.3254 7.03467 24.9941 7.13267 24.7234 7.338C24.4621 7.534 24.3314 7.82333 24.3314 8.206C24.3314 8.53267 24.4341 8.794 24.6394 8.99C24.8447 9.17667 25.1247 9.33533 25.4794 9.466C25.8341 9.59667 26.2401 9.73667 26.6974 9.886C27.1827 10.054 27.6261 10.25 28.0274 10.474C28.4287 10.698 28.7507 10.9967 28.9934 11.37C29.2361 11.734 29.3574 12.2053 29.3574 12.784C29.3574 13.2973 29.2267 13.7733 28.9654 14.212C28.7041 14.6507 28.3167 15.0053 27.8034 15.276C27.2901 15.5373 26.6601 15.668 25.9134 15.668ZM34.2529 15.668C33.5529 15.668 32.9322 15.5187 32.3909 15.22C31.8496 14.9213 31.4249 14.5013 31.1169 13.96C30.8089 13.4187 30.6549 12.7933 30.6549 12.084C30.6549 11.3653 30.8042 10.726 31.1029 10.166C31.4109 9.606 31.8309 9.172 32.3629 8.864C32.9042 8.54667 33.5389 8.388 34.2669 8.388C34.9482 8.388 35.5502 8.53733 36.0729 8.836C36.5956 9.13467 37.0016 9.54533 37.2909 10.068C37.5896 10.5813 37.7389 11.1553 37.7389 11.79C37.7389 11.8927 37.7342 12 37.7249 12.112C37.7249 12.224 37.7202 12.3407 37.7109 12.462H32.4329C32.4702 13.0033 32.6569 13.428 32.9929 13.736C33.3382 14.044 33.7536 14.198 34.2389 14.198C34.6029 14.198 34.9062 14.1187 35.1489 13.96C35.4009 13.792 35.5876 13.5773 35.7089 13.316H37.5289C37.3982 13.7547 37.1789 14.156 36.8709 14.52C36.5722 14.8747 36.1989 15.1547 35.7509 15.36C35.3122 15.5653 34.8129 15.668 34.2529 15.668ZM34.2669 9.844C33.8282 9.844 33.4409 9.97 33.1049 10.222C32.7689 10.4647 32.5542 10.838 32.4609 11.342H35.9189C35.8909 10.8847 35.7229 10.5207 35.4149 10.25C35.1069 9.97933 34.7242 9.844 34.2669 9.844ZM39.2461 15.5V5.42H41.0381V15.5H39.2461ZM42.8691 15.5V5.42H44.6611V15.5H42.8691Z" fill="white"/>
</svg>
