<svg width="28" height="30" viewBox="0 0 28 30" fill="none" xmlns="http://www.w3.org/2000/svg">
<g filter="url(#filter0_d_1_63)">
<path d="M21.7174 5.66322H8.5142L7.38609 3.64114C7.25946 3.41418 7.01992 3.27351 6.76002 3.27351H5.3262C4.93026 3.27351 4.60928 3.59449 4.60928 3.99043C4.60928 4.38636 4.93026 4.70734 5.3262 4.70734H6.33905L7.45236 6.70289L10.0199 12.3839L10.0226 12.3897L10.2487 12.8901L7.67085 15.6398C7.48549 15.8375 7.42747 16.1229 7.52089 16.3773C7.61431 16.6317 7.8432 16.8116 8.11246 16.8424L10.4621 17.1109C13.4012 17.4468 16.3689 17.4468 19.3079 17.1109L21.6576 16.8424C22.051 16.7975 22.3334 16.4421 22.2885 16.0487C22.2435 15.6554 21.8882 15.3729 21.4948 15.4179L19.1451 15.6864C16.3143 16.0099 13.4558 16.0099 10.625 15.6864L9.69247 15.5798L11.5845 13.5616C11.6028 13.5421 11.6198 13.5218 11.6355 13.5009L12.3551 13.5946C13.3635 13.7258 14.3828 13.7515 15.3965 13.6713C17.7609 13.4843 19.9522 12.3593 21.482 10.5469L22.0346 9.89228C22.0531 9.8703 22.0704 9.84722 22.0861 9.82317L23.116 8.25375C23.8459 7.14132 23.0479 5.66322 21.7174 5.66322Z" fill="#FD8B8B"/>
<path d="M9.62767 18.3287C8.83579 18.3287 8.19384 18.9706 8.19384 19.7625C8.19384 20.5544 8.83579 21.1963 9.62767 21.1963C10.4195 21.1963 11.0615 20.5544 11.0615 19.7625C11.0615 18.9706 10.4195 18.3287 9.62767 18.3287Z" fill="#FD8B8B"/>
<path d="M18.7086 19.7625C18.7086 18.9706 19.3505 18.3287 20.1424 18.3287C20.9343 18.3287 21.5762 18.9706 21.5762 19.7625C21.5762 20.5544 20.9343 21.1963 20.1424 21.1963C19.3505 21.1963 18.7086 20.5544 18.7086 19.7625Z" fill="#FD8B8B"/>
</g>
<defs>
<filter id="filter0_d_1_63" x="-0.58783" y="0.646973" width="30.9412" height="30.9412" filterUnits="userSpaceOnUse" color-interpolation-filters="sRGB">
<feFlood flood-opacity="0" result="BackgroundImageFix"/>
<feColorMatrix in="SourceAlpha" type="matrix" values="0 0 0 0 0 0 0 0 0 0 0 0 0 0 0 0 0 0 127 0" result="hardAlpha"/>
<feOffset dy="4"/>
<feGaussianBlur stdDeviation="2"/>
<feComposite in2="hardAlpha" operator="out"/>
<feColorMatrix type="matrix" values="0 0 0 0 0 0 0 0 0 0 0 0 0 0 0 0 0 0 0.25 0"/>
<feBlend mode="normal" in2="BackgroundImageFix" result="effect1_dropShadow_1_63"/>
<feBlend mode="normal" in="SourceGraphic" in2="effect1_dropShadow_1_63" result="shape"/>
</filter>
</defs>
</svg>
